# xmcd
# Track frame offsets:
# 150
# 25682
# 48190
# 65043
#
# Disc length: 1173 seconds
# Revision: 0
# Processed by: cddbd v1.5.2PL0 Copyright (c) Steve Scherf et al.
# Submitted via: VisiTrax 2.10.2.252 - For more info visit www.synapsa.com
#
DISCID=2c049304
DTITLE=Conny Runeson - Son en luffare
DYEAR=2007
DGENRE=Blues
TTITLE0=Som en luffare
TTITLE1=Pensionär
TTITLE2=Sömnlösa nätter
TTITLE3=Fett me blues
EXTD=
EXTT0=
EXTT1=
EXTT2=
EXTT3=
PLAYORDER=
